<svg xmlns="http://www.w3.org/2000/svg" xmlns:xlink="http://www.w3.org/1999/xlink"><symbol id="arrow" viewBox="0 0 92 62"><g fill="none">
    <path d="M40 52.213a29.836 29.836 0 0 0 15.297 8.21 29.76 29.76 0 0 0 17.26-1.707 29.902 29.902 0 0 0 13.408-11.049A30.089 30.089 0 0 0 91 31a30.089 30.089 0 0 0-5.035-16.667 29.902 29.902 0 0 0-13.407-11.05 29.76 29.76 0 0 0-17.262-1.707A29.837 29.837 0 0 0 40 9.786" stroke="#1F1E1E" stroke-width="2" stroke-linecap="round"/>
    <path d="M5 31h60M58 24l7 7-7 7" stroke="#1F1E1E" stroke-width="2" stroke-linecap="round" stroke-linejoin="round"/>
</g></symbol><symbol id="contact" viewBox="0 0 110 110"><g fill="none">
    <path fill="#1F1E1E" d="M0 0h110v110H0z"/>
    <path d="M65 59.92v3a2 2 0 0 1-2.18 2 19.79 19.79 0 0 1-8.63-3.07 19.499 19.499 0 0 1-6-6 19.79 19.79 0 0 1-3.07-8.67A2 2 0 0 1 47.11 45h3a2 2 0 0 1 2 1.72c.127.96.361 1.903.7 2.81a2 2 0 0 1-.45 2.11l-1.27 1.27a16 16 0 0 0 6 6l1.27-1.27a2 2 0 0 1 2.11-.45c.907.339 1.85.574 2.81.7A2 2 0 0 1 65 59.92Z" fill="#BC3324"/>
</g></symbol><symbol id="handshake" viewBox="0 0 110 110"><g fill="none">
    <path fill="#1F1E1E" d="M0 0h110v110H0z"/>
    <path d="M59.48 53.41c-.39.39-1.04.39-1.43 0l-4.47-4.46-7.05 7.04-.66-.63a3 3 0 0 1 0-4.24l4.24-4.24a3 3 0 0 1 4.24 0L59.48 52c.39.39.39 1.02 0 1.41Zm.7-2.12c.78.78.78 2.05 0 2.83-1.27 1.27-2.61.22-2.83 0l-3.76-3.76-5.57 5.57a.996.996 0 0 0 0 1.41c.39.39 1.02.39 1.42 0l4.62-4.62.71.71-4.62 4.62a.996.996 0 0 0 0 1.41c.39.39 1.02.39 1.42 0l4.62-4.62.71.71-4.62 4.62a.998.998 0 0 0 .705 1.702.997.997 0 0 0 .705-.292l4.62-4.62.71.71-4.62 4.62a.998.998 0 0 0 .705 1.702.997.997 0 0 0 .705-.292l8.32-8.34a3 3 0 0 0 0-4.24l-4.24-4.24a3.001 3.001 0 0 0-4.18-.06l4.47 4.47Z" fill="#BC3324"/>
</g></symbol><symbol id="information" viewBox="0 0 110 110"><g fill="none">
    <path fill="#1F1E1E" d="M0 0h110v110H0z"/>
    <path fill-rule="evenodd" clip-rule="evenodd" d="M55 66c6.075 0 11-4.925 11-11s-4.925-11-11-11-11 4.925-11 11 4.925 11 11 11Zm-1-6.6a1 1 0 0 1 1-1h.011a1 1 0 1 1 0 2H55a1 1 0 0 1-1-1Zm2-8.8a1 1 0 1 0-2 0V55a1 1 0 1 0 2 0v-4.4Z" fill="#BC3324"/>
</g></symbol><symbol id="instagram_logo"><g fill="none">
    <path fill-rule="evenodd" clip-rule="evenodd" d="M29 58c16.016 0 29-12.984 29-29S45.016 0 29 0 0 12.984 0 29s12.984 29 29 29Zm-3.535-32.535a5 5 0 1 1 7.07 7.07 5 5 0 0 1-7.07-7.07Zm1.238 5.83a3.248 3.248 0 1 0 4.594-4.593 3.248 3.248 0 0 0-4.594 4.594ZM34 25a1 1 0 1 0 0-2 1 1 0 0 0 0 2Zm3.317-4.323a5.106 5.106 0 0 1 1.153 1.767c.297.787.455 1.618.468 2.459.062 1.06.062 1.405.062 4.114 0 2.709-.014 3.047-.062 4.114a7.296 7.296 0 0 1-.466 2.424 5.115 5.115 0 0 1-2.924 2.92 7.355 7.355 0 0 1-2.428.464C32.06 39 31.712 39 29 39s-3.05-.014-4.12-.061a7.321 7.321 0 0 1-2.427-.499 5.12 5.12 0 0 1-2.925-2.919 7.307 7.307 0 0 1-.466-2.425C19 32.035 19 31.69 19 28.982c0-2.709.014-3.047.062-4.114a7.293 7.293 0 0 1 .465-2.424 5.1 5.1 0 0 1 2.925-2.918 7.288 7.288 0 0 1 2.425-.466c1.061-.06 1.409-.06 4.12-.06 2.713 0 3.052.013 4.121.06.83.017 1.65.174 2.428.466a5.116 5.116 0 0 1 1.77 1.15Zm-.545 14.209c.221-.6.338-1.233.346-1.872v.001h.012c.047-1.06.047-1.35.047-4.052 0-2.702-.012-2.998-.06-4.053a5.624 5.624 0 0 0-.345-1.85 3.316 3.316 0 0 0-1.901-1.899 5.516 5.516 0 0 0-1.855-.345c-1.074-.06-1.352-.06-4.058-.06-2.707 0-3.003.013-4.06.06a5.571 5.571 0 0 0-1.853.345 3.314 3.314 0 0 0-1.91 1.899 5.579 5.579 0 0 0-.345 1.87c-.058 1.075-.058 1.351-.058 4.053s.01 2.999.058 4.052c.01.632.127 1.258.346 1.851a3.309 3.309 0 0 0 1.909 1.897c.593.22 1.22.337 1.853.345 1.076.061 1.352.061 4.06.061 2.705 0 3.003-.012 4.058-.06a5.544 5.544 0 0 0 1.855-.346 3.318 3.318 0 0 0 1.901-1.897Z" fill="#1F1E1E"/>
</g></symbol><symbol id="login" viewBox="0 0 24 24"><g fill="none">
    <path d="m10 17 5-5-5-5M15 12H3M15 3h4a2 2 0 0 1 2 2v14a2 2 0 0 1-2 2h-4" stroke="#1F1E1E" stroke-width="2" stroke-linecap="round" stroke-linejoin="round"/>
</g></symbol><symbol id="logo" viewBox="0 0 202 147"><g fill="none">
    <path fill="#1F1E1E" d="M0 0h147v147H0z"/>
    <path d="M39.965 72.439H26.633V50.032H26.6v-.033h-4.686V73h18.051v-.561ZM43.931 73h18.117v-.561h-13.43V61.285H59.11v-.594H48.617V50.56h13.431v-.561H43.931V73ZM70.699 73V50.56c2.87 0 11.715 1.089 12.375 13.893V73h4.686V49.999h-4.686v10.329c-1.42-6.138-5.907-10.329-12.375-10.329h-4.686V73h4.686ZM97.389 73V50.56c2.871 0 11.715 1.089 12.375 13.893V73h4.686V49.999h-4.686v10.329c-1.419-6.138-5.907-10.329-12.375-10.329h-4.686V73h4.686ZM119.393 73h4.686V49.999h-4.686V73Z" fill="#fff"/>
    <path fill="#BC3324" d="M81 92h121v42H81z"/>
    <path d="M108.922 124h.54l2.94-8.55h8.55l3.33 8.55h4.47l-8.1-20.91h-4.53l-7.2 20.91Zm7.5-20.25 4.35 11.19h-8.19l3.84-11.19ZM132.643 103.09V124h4.26v-7.23h5.07l4.89 7.2h4.86l-5.16-7.65c3-.78 5.28-2.64 5.28-6.81 0-5.22-3.81-6.87-8.25-6.87-4.68 0-6.03 3.51-6.69 7.41v-6.96h-4.26Zm5.43 4.38c.81-2.94 2.91-4.14 4.77-4.29 4.47-.42 4.65 2.43 4.65 6.33 0 6.33-3.36 6.75-6.24 6.75h-4.35s-.12-4.14 1.17-8.79ZM162.083 103.6l.03 20.4h4.26v-20.4h8.61v-.51h-21.51v.51h8.61Z" fill="#fff"/>
</g></symbol><symbol id="tagree_logo"><g fill="none">
    <path d="M6.301 12.695H4.107a3.15 3.15 0 0 1-1.276-.262 3.309 3.309 0 0 1-1.037-.704 3.6 3.6 0 0 1-.698-1.066 3.227 3.227 0 0 1-.26-1.288V.604L3.23 0v3.843h1.396l.598 2.414H3.23v3.118c0 .255.086.47.26.644a.84.84 0 0 0 .617.261h1.596l.598 2.415ZM16.7 2.615v10.08h-2.393v-5.03c0-.805-.28-1.489-.838-2.052a2.757 2.757 0 0 0-2.034-.845 2.91 2.91 0 0 0-1.117.221 2.862 2.862 0 0 0-.917.624 2.806 2.806 0 0 0-.837 2.052c0 .791.279 1.469.837 2.032.266.282.572.496.918.644.358.134.73.201 1.116.201.4 0 .758-.067 1.077-.201l.858 2.152c-.612.309-1.323.463-2.134.463a5.1 5.1 0 0 1-2.034-.402 5.065 5.065 0 0 1-1.596-1.147 5.253 5.253 0 0 1-1.057-1.69 5.568 5.568 0 0 1-.378-2.052c0-.738.126-1.428.378-2.072a5.252 5.252 0 0 1 1.057-1.69 4.807 4.807 0 0 1 1.596-1.127 4.892 4.892 0 0 1 2.034-.422c.651 0 1.23.1 1.735.302.505.2.95.456 1.336.764v-.805H16.7ZM28.326 11.689c0 .724-.14 1.408-.419 2.052a5.188 5.188 0 0 1-1.116 1.69 5.41 5.41 0 0 1-1.675 1.147 5.03 5.03 0 0 1-2.054.422 5.053 5.053 0 0 1-1.696-.282 5.279 5.279 0 0 1-1.475-.804l1.735-1.73c.425.268.904.402 1.436.402.81 0 1.488-.289 2.034-.865.558-.564.837-1.24.837-2.032V7.645c0-.778-.279-1.462-.837-2.052a2.757 2.757 0 0 0-2.034-.845c-.771 0-1.45.282-2.035.845-.558.59-.837 1.274-.837 2.052 0 .805.28 1.489.837 2.052.585.563 1.264.845 2.035.845.398 0 .757-.067 1.076-.201l.898 2.253a5.12 5.12 0 0 1-1.935.362h-.04a5.194 5.194 0 0 1-2.034-.402 5.41 5.41 0 0 1-2.811-2.837 5.151 5.151 0 0 1-.42-2.072 5.9 5.9 0 0 1 .36-2.072c.24-.644.572-1.207.997-1.69a4.65 4.65 0 0 1 1.555-1.127 4.71 4.71 0 0 1 1.995-.422c.69 0 1.303.107 1.834.322.532.2.997.456 1.396.764v-.784h2.393v9.053ZM31.92 3.4a5.173 5.173 0 0 1 1.257-.764 4.132 4.132 0 0 1 1.615-.302v2.414c-.797 0-1.476.282-2.034.845-.558.59-.837 1.274-.837 2.052v5.05h-2.393V2.615h2.393V3.4ZM42.85 8.872h-5.224c.133.309.325.584.578.825.28.282.592.496.937.644.346.134.712.201 1.097.201.545 0 1.03-.127 1.456-.382l2.493 1.006a5.143 5.143 0 0 1-1.735 1.327 5.28 5.28 0 0 1-2.214.463 5.245 5.245 0 0 1-2.054-.402 5.41 5.41 0 0 1-2.812-2.837 5.322 5.322 0 0 1-.399-2.052c0-.738.133-1.428.4-2.072a5.462 5.462 0 0 1 1.136-1.69 5.136 5.136 0 0 1 1.675-1.127 5.03 5.03 0 0 1 2.054-.422c.731 0 1.416.14 2.054.422a5.136 5.136 0 0 1 1.675 1.127c.479.483.851 1.046 1.117 1.69.28.644.419 1.334.419 2.072 0 .43-.047.832-.14 1.207H42.85Zm-2.612-4.104c-.771 0-1.449.282-2.034.845a2.73 2.73 0 0 0-.578.845h5.224a2.732 2.732 0 0 0-.578-.845 2.757 2.757 0 0 0-2.034-.845ZM54.185 8.872H48.96c.133.309.326.584.578.825.28.282.592.496.937.644.346.134.712.201 1.097.201.545 0 1.03-.127 1.456-.382l2.493 1.006a5.143 5.143 0 0 1-1.735 1.327 5.281 5.281 0 0 1-2.214.463 5.245 5.245 0 0 1-2.054-.402 5.41 5.41 0 0 1-2.812-2.837 5.322 5.322 0 0 1-.398-2.052c0-.738.133-1.428.398-2.072a5.464 5.464 0 0 1 1.137-1.69 5.136 5.136 0 0 1 1.675-1.127 5.03 5.03 0 0 1 2.054-.422c.731 0 1.416.14 2.054.422a5.136 5.136 0 0 1 1.675 1.127c.479.483.851 1.046 1.117 1.69.28.644.419 1.334.419 2.072 0 .43-.047.832-.14 1.207h-2.512Zm-2.613-4.104c-.77 0-1.449.282-2.034.845a2.73 2.73 0 0 0-.578.845h5.225a2.73 2.73 0 0 0-.579-.845 2.757 2.757 0 0 0-2.034-.845Z" fill="#1F1E1E"/>
</g></symbol><symbol id="user" viewBox="0 0 24 24"><g fill="none">
    <path d="M13.3 12.22A4.92 4.92 0 0 0 15 8.5a5 5 0 0 0-10 0 4.92 4.92 0 0 0 1.7 3.72A8 8 0 0 0 2 19.5a1 1 0 1 0 2 0 6 6 0 1 1 12 0 1 1 0 0 0 2 0 8 8 0 0 0-4.7-7.28ZM10 11.5a3 3 0 1 1 0-6 3 3 0 0 1 0 6Zm11.71-2.37a1 1 0 0 0-1.42 0l-2 2-.62-.63a1.002 1.002 0 0 0-1.71.705 1 1 0 0 0 .29.705l1.34 1.34a1 1 0 0 0 1.41 0l2.67-2.67a1 1 0 0 0 .04-1.45Z" fill="#1F1E1E"/>
</g></symbol><symbol id="vk_logo"><g fill="none">
    <path fill-rule="evenodd" clip-rule="evenodd" d="M58 29c0 16.016-12.984 29-29 29S0 45.016 0 29 12.984 0 29 0s29 12.984 29 29ZM22.71 19A3.725 3.725 0 0 0 19 22.71v12.58A3.725 3.725 0 0 0 22.71 39h12.58A3.725 3.725 0 0 0 39 35.29V22.71A3.725 3.725 0 0 0 35.29 19H22.71Zm12.58 1.818c1.054 0 1.892.838 1.892 1.893v12.578a1.881 1.881 0 0 1-1.893 1.893H22.711a1.88 1.88 0 0 1-1.893-1.893V22.711c0-1.055.838-1.893 1.893-1.893h12.578ZM34.326 26c.398 0 .48.172.398.406-.167.644-1.767 2.541-1.767 2.541-.14.188-.195.281 0 .492.069.08.215.201.382.34.173.142.367.302.522.456.564.535.989.985 1.108 1.295.108.312-.08.47-.455.47h-1.313c-.352 0-.529-.166-.911-.524a14.813 14.813 0 0 0-.626-.562c-.78-.632-1.113-.714-1.308-.714-.264 0-.343.063-.343.379v.991c0 .272-.103.43-.938.43-1.391 0-2.919-.711-4.003-2.022C23.445 28.058 23 26.605 23 26.313c0-.164.075-.313.45-.313h1.314c.335 0 .461.123.585.43.643 1.574 1.725 2.95 2.17 2.95.167 0 .244-.064.244-.421V27.33c-.03-.463-.222-.663-.365-.812-.088-.091-.157-.163-.157-.265 0-.124.126-.254.334-.254h2.064c.278 0 .37.125.37.406v2.19c0 .234.126.316.21.316.166 0 .305-.082.611-.34.946-.89 1.613-2.26 1.613-2.26.084-.163.238-.312.572-.312h1.312Z" fill="#1F1E1E"/>
</g></symbol><symbol id="x" viewBox="0 0 60 60"><g fill="none">
    <circle cx="30" cy="30" r="30" fill="#1F1E1E"/>
    <path d="M36 24 24 36M24 24l12 12" stroke="#fff" stroke-width="2" stroke-linecap="round" stroke-linejoin="round"/>
</g></symbol></svg>