<svg viewBox="0 0 110 110" fill="none" xmlns="http://www.w3.org/2000/svg">
<rect width="110" height="110" fill="#1F1E1E"/>
<path d="M65 59.9201V62.9201C65.0011 63.1986 64.9441 63.4743 64.8325 63.7294C64.7209 63.9846 64.5573 64.2137 64.3521 64.402C64.1469 64.5902 63.9046 64.7336 63.6407 64.8228C63.3769 64.912 63.0974 64.9452 62.82 64.9201C59.7428 64.5857 56.787 63.5342 54.19 61.8501C51.7738 60.3148 49.7253 58.2663 48.19 55.8501C46.5 53.2413 45.4482 50.2711 45.12 47.1801C45.095 46.9036 45.1279 46.6249 45.2165 46.3617C45.3051 46.0986 45.4476 45.8568 45.6348 45.6517C45.822 45.4466 46.0498 45.2828 46.3038 45.1706C46.5578 45.0584 46.8323 45.0004 47.11 45.0001H50.11C50.5953 44.9953 51.0658 45.1672 51.4338 45.4836C51.8017 45.8001 52.0421 46.2395 52.11 46.7201C52.2366 47.6802 52.4714 48.6228 52.81 49.5301C52.9445 49.888 52.9737 50.277 52.8939 50.651C52.8141 51.0249 52.6289 51.3682 52.36 51.6401L51.09 52.9101C52.5135 55.4136 54.5864 57.4865 57.09 58.9101L58.36 57.6401C58.6319 57.3712 58.9751 57.1859 59.3491 57.1062C59.7231 57.0264 60.1121 57.0556 60.47 57.1901C61.3773 57.5286 62.3199 57.7635 63.28 57.8901C63.7658 57.9586 64.2094 58.2033 64.5265 58.5776C64.8437 58.9519 65.0122 59.4297 65 59.9201Z" fill="#BC3324"/>
</svg>
