<svg viewBox="0 0 110 110" fill="none" xmlns="http://www.w3.org/2000/svg">
<rect width="110" height="110" fill="#1F1E1E"/>
<path d="M59.48 53.4098C59.09 53.7998 58.44 53.7998 58.05 53.4098L53.58 48.9498L46.53 55.9898L45.87 55.3598C45.3082 54.7973 44.9926 54.0348 44.9926 53.2398C44.9926 52.4448 45.3082 51.6823 45.87 51.1198L50.11 46.8798C50.6725 46.318 51.435 46.0024 52.23 46.0024C53.025 46.0024 53.7875 46.318 54.35 46.8798L59.48 51.9998C59.87 52.3898 59.87 53.0198 59.48 53.4098ZM60.18 51.2898C60.96 52.0698 60.96 53.3398 60.18 54.1198C58.91 55.3898 57.57 54.3398 57.35 54.1198L53.59 50.3598L48.02 55.9298C47.9273 56.0223 47.8537 56.1322 47.8035 56.2532C47.7534 56.3742 47.7275 56.5038 47.7275 56.6348C47.7275 56.7658 47.7534 56.8955 47.8035 57.0164C47.8537 57.1374 47.9273 57.2473 48.02 57.3398C48.41 57.7298 49.04 57.7298 49.44 57.3398L54.06 52.7198L54.77 53.4298L50.15 58.0498C50.0573 58.1423 49.9837 58.2522 49.9335 58.3732C49.8834 58.4942 49.8575 58.6238 49.8575 58.7548C49.8575 58.8858 49.8834 59.0155 49.9335 59.1364C49.9837 59.2574 50.0573 59.3673 50.15 59.4598C50.54 59.8498 51.17 59.8498 51.57 59.4598L56.19 54.8398L56.9 55.5498L52.28 60.1698C52.1874 60.2624 52.114 60.3723 52.0638 60.4933C52.0137 60.6142 51.988 60.7439 51.988 60.8748C51.988 61.0057 52.0137 61.1354 52.0638 61.2563C52.114 61.3773 52.1874 61.4872 52.28 61.5798C52.3726 61.6724 52.4825 61.7458 52.6034 61.7959C52.7244 61.846 52.854 61.8718 52.985 61.8718C53.1159 61.8718 53.2456 61.846 53.3665 61.7959C53.4875 61.7458 53.5974 61.6724 53.69 61.5798L58.31 56.9598L59.02 57.6698L54.4 62.2898C54.3074 62.3824 54.234 62.4923 54.1838 62.6133C54.1337 62.7342 54.108 62.8639 54.108 62.9948C54.108 63.1257 54.1337 63.2554 54.1838 63.3763C54.234 63.4973 54.3074 63.6072 54.4 63.6998C54.587 63.8868 54.8405 63.9918 55.105 63.9918C55.2359 63.9918 55.3656 63.966 55.4865 63.9159C55.6075 63.8658 55.7174 63.7924 55.81 63.6998L64.13 55.3598C64.6918 54.7973 65.0073 54.0348 65.0073 53.2398C65.0073 52.4448 64.6918 51.6823 64.13 51.1198L59.89 46.8798C59.3378 46.3282 58.5925 46.0135 57.8121 46.0023C57.0318 45.9911 56.2777 46.2843 55.71 46.8198L60.18 51.2898Z" fill="#BC3324"/>
</svg>
