<svg viewBox="0 0 110 110" fill="none" xmlns="http://www.w3.org/2000/svg">
<rect width="110" height="110" fill="#1F1E1E"/>
<path fill-rule="evenodd" clip-rule="evenodd" d="M55 66C61.0751 66 66 61.0751 66 55C66 48.9249 61.0751 44 55 44C48.9249 44 44 48.9249 44 55C44 61.0751 48.9249 66 55 66ZM54 59.4C54 58.8477 54.4477 58.4 55 58.4H55.011C55.5633 58.4 56.011 58.8477 56.011 59.4C56.011 59.9523 55.5633 60.4 55.011 60.4H55C54.4477 60.4 54 59.9523 54 59.4ZM56 50.6C56 50.0477 55.5523 49.6 55 49.6C54.4477 49.6 54 50.0477 54 50.6V55C54 55.5523 54.4477 56 55 56C55.5523 56 56 55.5523 56 55V50.6Z" fill="#BC3324"/>
</svg>
