<svg width="58" height="58" viewBox="0 0 58 58" fill="none" xmlns="http://www.w3.org/2000/svg">
<path fill-rule="evenodd" clip-rule="evenodd" d="M29 58C45.0163 58 58 45.0163 58 29C58 12.9837 45.0163 0 29 0C12.9837 0 0 12.9837 0 29C0 45.0163 12.9837 58 29 58ZM25.4645 25.4645C26.4021 24.5268 27.6739 24 29 24C30.3261 24 31.5979 24.5268 32.5355 25.4645C33.4732 26.4021 34 27.6739 34 29C34 30.3261 33.4732 31.5979 32.5355 32.5355C31.5979 33.4732 30.3261 34 29 34C27.6739 34 26.4021 33.4732 25.4645 32.5355C24.5268 31.5979 24 30.3261 24 29C24 27.6739 24.5268 26.4021 25.4645 25.4645ZM26.7031 31.2958C27.3123 31.905 28.1385 32.2472 29 32.2472C29.8615 32.2472 30.6877 31.905 31.2969 31.2958C31.906 30.6866 32.2483 29.8604 32.2483 28.9989C32.2483 28.1374 31.906 27.3112 31.2969 26.702C30.6877 26.0929 29.8615 25.7506 29 25.7506C28.1385 25.7506 27.3123 26.0929 26.7031 26.702C26.094 27.3112 25.7517 28.1374 25.7517 28.9989C25.7517 29.8604 26.094 30.6866 26.7031 31.2958ZM34 25C34.5523 25 35 24.5523 35 24C35 23.4477 34.5523 23 34 23C33.4477 23 33 23.4477 33 24C33 24.5523 33.4477 25 34 25ZM37.3167 20.6767C37.8202 21.1793 38.2131 21.7813 38.4702 22.4442C38.7667 23.2307 38.9249 24.0624 38.9378 24.9026C39 25.9639 39 26.3076 39 29.0166C39 31.7257 38.9856 32.0639 38.9378 33.1306C38.9211 33.9601 38.7645 34.7784 38.4725 35.5547C38.215 36.2175 37.822 36.8195 37.3185 37.3222C36.815 37.8249 36.2121 38.2173 35.5482 38.4744C34.771 38.7651 33.9501 38.9222 33.1204 38.939C32.0598 39 31.7121 39 29 39C26.2879 39 25.9491 38.9856 24.8796 38.939C24.0482 38.9117 23.2275 38.743 22.4529 38.44C21.7888 38.1834 21.1857 37.7913 20.682 37.2887C20.1782 36.7862 19.7851 36.1843 19.5275 35.5214C19.2355 34.7441 19.0789 33.9257 19.0622 33.0963C19 32.035 19 31.6902 19 28.9823C19 26.2732 19.0144 25.935 19.0622 24.8683C19.0784 24.0397 19.2358 23.22 19.5275 22.4442C19.7843 21.7811 20.1771 21.179 20.6807 20.6763C21.1843 20.1737 21.7876 19.7818 22.4518 19.5256C23.2279 19.2335 24.0482 19.076 24.8774 19.0599C25.938 19 26.2857 19 28.9978 19C31.7099 19 32.0486 19.0133 33.1182 19.0599C33.948 19.0769 34.7689 19.2344 35.546 19.5256C36.21 19.7821 36.8131 20.1741 37.3167 20.6767ZM36.7721 34.886C36.9935 34.2864 37.1103 33.6533 37.1175 33.0142V33.0153H37.1297C37.1775 31.9552 37.1775 31.6647 37.1775 28.9634C37.1775 26.261 37.1653 25.965 37.1175 24.9104C37.1072 24.2785 36.9904 23.6529 36.7721 23.0597C36.6052 22.6284 36.3498 22.2367 36.0224 21.9098C35.695 21.5828 35.3027 21.3279 34.8707 21.1612C34.2769 20.9406 33.6495 20.824 33.016 20.8164C31.942 20.7554 31.6644 20.7554 28.9578 20.7554C26.2512 20.7554 25.9547 20.7687 24.8985 20.8164C24.2655 20.8252 23.6386 20.9418 23.0449 21.1612C22.1686 21.4961 21.4745 22.1847 21.1357 23.0597C20.9143 23.6589 20.7975 24.2917 20.7903 24.9304C20.7315 26.0049 20.7315 26.281 20.7315 28.9834C20.7315 31.6846 20.7426 31.9818 20.7903 33.0353C20.8007 33.6672 20.9174 34.2928 21.1357 34.886C21.3032 35.318 21.5597 35.7102 21.8886 36.037C22.2175 36.3638 22.6114 36.6181 23.0449 36.7833C23.6383 37.0038 24.2654 37.1205 24.8985 37.1282C25.9736 37.1892 26.2501 37.1892 28.9578 37.1892C31.6633 37.1892 31.9609 37.177 33.016 37.1282C33.6494 37.12 34.2768 37.0034 34.8707 36.7833C35.3027 36.6171 35.695 36.3623 36.0225 36.0356C36.35 35.7088 36.6053 35.3172 36.7721 34.886Z" fill="#1F1E1E"/>
</svg>
