<svg width="58" height="58" viewBox="0 0 58 58" fill="none" xmlns="http://www.w3.org/2000/svg">
<path fill-rule="evenodd" clip-rule="evenodd" d="M58 29C58 45.0163 45.0163 58 29 58C12.9837 58 0 45.0163 0 29C0 12.9837 12.9837 0 29 0C45.0163 0 58 12.9837 58 29ZM22.7109 19C21.7279 19.0038 20.7862 19.396 20.0911 20.0911C19.396 20.7862 19.0038 21.7279 19 22.7109V35.2891C19.0038 36.2721 19.396 37.2138 20.0911 37.9089C20.7862 38.604 21.7279 38.9962 22.7109 39H35.2891C36.2721 38.9962 37.2138 38.604 37.9089 37.9089C38.604 37.2138 38.9962 36.2721 39 35.2891V22.7109C38.9962 21.7279 38.604 20.7862 37.9089 20.0911C37.2138 19.396 36.2721 19.0038 35.2891 19H22.7109ZM35.2891 20.8182C36.3436 20.8182 37.1818 21.6564 37.1818 22.7109V35.2891C37.1818 36.3436 36.3436 37.1818 35.2891 37.1818H22.7109C22.4619 37.1834 22.2151 37.1355 21.9847 37.0409C21.7544 36.9464 21.5451 36.807 21.3691 36.631C21.193 36.4549 21.0536 36.2456 20.9591 36.0153C20.8645 35.7849 20.8166 35.5381 20.8182 35.2891V22.7109C20.8182 21.6564 21.6564 20.8182 22.7109 20.8182H35.2891ZM34.3273 26C34.7248 26 34.8078 26.1723 34.7248 26.4063H34.7243C34.5578 27.0504 32.9578 28.9473 32.9578 28.9473C32.8188 29.1346 32.7633 29.2284 32.9578 29.4389C33.0266 29.5198 33.1729 29.6404 33.3403 29.7785C33.5126 29.9205 33.7071 30.0808 33.8623 30.2351C34.4258 30.7696 34.8508 31.22 34.9697 31.5303C35.0778 31.8423 34.8898 32 34.5148 32H33.2023C32.8503 32 32.6733 31.8342 32.2906 31.4757C32.1286 31.3238 31.9296 31.1374 31.6648 30.9144C30.8858 30.2823 30.5523 30.2 30.3573 30.2C30.0929 30.2 30.0139 30.263 30.0139 30.5789V31.5701C30.0139 31.8423 29.9109 32 29.0764 32C27.6849 32 26.1574 31.289 25.0725 29.9776C23.445 28.0571 23 26.6051 23 26.3129C23 26.1487 23.075 26 23.45 26H24.7635C25.099 26 25.225 26.1234 25.3495 26.4299C25.9919 28.0044 27.0744 29.3806 27.5194 29.3806C27.6864 29.3806 27.7629 29.3159 27.7629 28.9589V27.3311C27.7329 26.8679 27.5406 26.6675 27.3982 26.5191C27.3103 26.4275 27.2414 26.3557 27.2414 26.2541C27.2414 26.1303 27.3669 26 27.5754 26H29.6394C29.9174 26 30.0094 26.1251 30.0094 26.4063V28.5959C30.0094 28.8303 30.1349 28.9121 30.2183 28.9121C30.3853 28.9121 30.5243 28.8303 30.8303 28.5723C31.7758 27.6826 32.4433 26.3129 32.4433 26.3129C32.5268 26.1487 32.6808 26 33.0148 26H34.3273Z" fill="#1F1E1E"/>
</svg>
